<mxfile host="app.diagrams.net" modified="2021-10-30T14:08:49.883Z" agent="5.0 (Windows NT 6.1; Win64; x64) AppleWebKit/537.36 (KHTML, like Gecko) Chrome/92.0.4515.131 Safari/537.36" etag="yRG44YT1apJlSqcvYSXv" version="15.5.8" type="github">
  <diagram id="RazeWWvfKtobk2KxJ5Xi" name="Page-1">
    <mxGraphModel dx="1185" dy="667" grid="1" gridSize="10" guides="1" tooltips="1" connect="1" arrows="1" fold="1" page="1" pageScale="1" pageWidth="827" pageHeight="1169" math="0" shadow="0">
      <root>
        <mxCell id="0" />
        <mxCell id="1" parent="0" />
        <mxCell id="-sXeRT-3P2xjuPLuy42v-4" value="" style="edgeStyle=orthogonalEdgeStyle;rounded=0;orthogonalLoop=1;jettySize=auto;html=1;" edge="1" parent="1" source="-sXeRT-3P2xjuPLuy42v-1" target="-sXeRT-3P2xjuPLuy42v-3">
          <mxGeometry relative="1" as="geometry" />
        </mxCell>
        <mxCell id="-sXeRT-3P2xjuPLuy42v-1" value="情绪" style="rounded=1;whiteSpace=wrap;html=1;" vertex="1" parent="1">
          <mxGeometry x="190" y="230" width="90" height="40" as="geometry" />
        </mxCell>
        <mxCell id="-sXeRT-3P2xjuPLuy42v-9" value="" style="edgeStyle=orthogonalEdgeStyle;rounded=0;orthogonalLoop=1;jettySize=auto;html=1;" edge="1" parent="1" source="-sXeRT-3P2xjuPLuy42v-3" target="-sXeRT-3P2xjuPLuy42v-8">
          <mxGeometry relative="1" as="geometry" />
        </mxCell>
        <mxCell id="-sXeRT-3P2xjuPLuy42v-3" value="思维" style="rounded=1;whiteSpace=wrap;html=1;" vertex="1" parent="1">
          <mxGeometry x="360" y="230" width="90" height="40" as="geometry" />
        </mxCell>
        <mxCell id="-sXeRT-3P2xjuPLuy42v-11" value="" style="edgeStyle=orthogonalEdgeStyle;rounded=0;orthogonalLoop=1;jettySize=auto;html=1;" edge="1" parent="1" source="-sXeRT-3P2xjuPLuy42v-8" target="-sXeRT-3P2xjuPLuy42v-10">
          <mxGeometry relative="1" as="geometry" />
        </mxCell>
        <mxCell id="-sXeRT-3P2xjuPLuy42v-8" value="流程" style="rounded=1;whiteSpace=wrap;html=1;" vertex="1" parent="1">
          <mxGeometry x="530" y="230" width="90" height="40" as="geometry" />
        </mxCell>
        <mxCell id="-sXeRT-3P2xjuPLuy42v-13" value="" style="edgeStyle=orthogonalEdgeStyle;rounded=0;orthogonalLoop=1;jettySize=auto;html=1;" edge="1" parent="1" source="-sXeRT-3P2xjuPLuy42v-10" target="-sXeRT-3P2xjuPLuy42v-12">
          <mxGeometry relative="1" as="geometry" />
        </mxCell>
        <mxCell id="-sXeRT-3P2xjuPLuy42v-10" value="假设" style="rounded=1;whiteSpace=wrap;html=1;" vertex="1" parent="1">
          <mxGeometry x="700" y="230" width="90" height="40" as="geometry" />
        </mxCell>
        <mxCell id="-sXeRT-3P2xjuPLuy42v-15" value="" style="edgeStyle=orthogonalEdgeStyle;rounded=0;orthogonalLoop=1;jettySize=auto;html=1;" edge="1" parent="1" source="-sXeRT-3P2xjuPLuy42v-12" target="-sXeRT-3P2xjuPLuy42v-14">
          <mxGeometry relative="1" as="geometry" />
        </mxCell>
        <mxCell id="-sXeRT-3P2xjuPLuy42v-12" value="验证" style="rounded=1;whiteSpace=wrap;html=1;" vertex="1" parent="1">
          <mxGeometry x="870" y="230" width="90" height="40" as="geometry" />
        </mxCell>
        <mxCell id="-sXeRT-3P2xjuPLuy42v-14" value="沟通" style="rounded=1;whiteSpace=wrap;html=1;" vertex="1" parent="1">
          <mxGeometry x="1040" y="230" width="90" height="40" as="geometry" />
        </mxCell>
      </root>
    </mxGraphModel>
  </diagram>
</mxfile>
